Format : AVI
Format/Info : Audio Video Interleave
File size : 1.40 GiB
Duration : 1h 29mn
Overall bit rate : 2 258 Kbps
Writing library : VirtualDub build 32842/release

Video
ID : 0
Format : MPEG-4 Visual
Format profile : Advanced Simple@L5
Format settings, BVOP : 2
Format settings, QPel : No
Format settings, GMC : No warppoints
Format settings, Matrix : Default (H.263)
Muxing mode : Packed bitstream
Codec ID : XVID
Codec ID/Hint : XviD
Duration : 1h 29mn
Bit rate : 1 800 Kbps
Width : 720 pixels
Height : 400 pixels
Display aspect ratio : 16:9
Frame rate : 23.976 fps
Color space : YUV
Chroma subsampling : 4:2:0
Bit depth : 8 bits
Scan type : Progressive
Compression mode : Lossy
Bits/(Pixel*Frame) : 0.261
Stream size : 1.12 GiB (80%)
Writing library : XviD 64

Audio
ID : 1
Format : AC-3
Format/Info : Audio Coding 3
Mode extension : CM (complete main)
Codec ID : 2000
Duration : 1h 29mn
Bit rate mode : Constant
Bit rate : 448 Kbps
Channel(s) : 6 channels
Channel positions : Front: L C R, Side: L R, LFE
Sampling rate : 48.0 KHz
Bit depth : 16 bits
Compression mode : Lossy
Stream size : 286 MiB (20%)
Alignment : Split accross interleaves
Interleave, duration : 42 ms (1.00 video frame)
Interleave, preload duration : 500 ms







 
http://www.imdb.com/title/tt1810697/




(awaiting 5 votes) 
Reviews: 1 user

Follows disillusioned young family man John as a mysterious stranger, Richie takes him on a murder-fueled ride that transforms the weak-willed John into a desperate hero willing to go to any length to protect his family.

Director:
Chris Fisher
Writers:
Thomas Berger (novel), Chris Fisher
Stars:
Leslie Bibb, Samuel L. Jackson and Luke Wilson 






Source Used



SiC 720p .............thanks




Enjoy